<svg xmlns="http://www.w3.org/2000/svg">

<symbol id="video" viewBox="0 0 68 48">
		<path class="ytp-large-play-button-bg" d="M.66 37.62s.66 4.7 2.7 6.77c2.58 2.71 5.98 2.63 7.49 2.91 5.43.52 23.1.68 23.12.68 0 0 14.29-.02 23.81-.71 1.32-.15 4.22-.17 6.81-2.89 2.03-2.07 2.7-6.77 2.7-6.77s.67-5.52.67-11.04V21.4c0-5.52-.67-11.04-.67-11.04s-.66-4.7-2.7-6.77C62.03.86 59.13.84 57.8.69 48.28 0 34 0 34 0c-.03 0-14.31 0-23.82.69-1.33.15-4.23.17-6.82 2.89-2.04 2.07-2.7 6.77-2.7 6.77S.11 14.85 0 19.8v8.36c.1 4.94.66 9.45.66 9.45z"></path><path d="M26.96 13.67l18.37 9.62-18.37 9.55V13.67z" fill="#fff"></path><path d="M45.02 23.46l.3-.18-18.36-9.61 16.36 10.67 1.7-.88z" fill="#ccc"></path>
</symbol>

<symbol id="alert" viewBox="0 0 512 512">
<g><g>
	<g>
		<path d="M501.362,383.95L320.497,51.474c-29.059-48.921-99.896-48.986-128.994,0L10.647,383.95    c-29.706,49.989,6.259,113.291,64.482,113.291h361.736C495.039,497.241,531.068,433.99,501.362,383.95z M256,437.241    c-16.538,0-30-13.462-30-30c0-16.538,13.462-30,30-30c16.538,0,30,13.462,30,30C286,423.779,272.538,437.241,256,437.241z     M286,317.241c0,16.538-13.462,30-30,30c-16.538,0-30-13.462-30-30v-150c0-16.538,13.462-30,30-30c16.538,0,30,13.462,30,30    V317.241z" data-original="#000000" class="active-path" data-old_color="#000000" />
	</g>
</g></g>
</symbol>

<symbol id="back" viewBox="0 0 512 512">
<g><g>
	<g>
		<path d="M268.708,256l136.083-128.531c14.104-14.104,21.875-32.854,21.875-52.802C426.667,33.5,393.167,0,352,0    c-19.875,0-38.583,7.719-52.667,21.75L107.208,203.198c-10.396,10.385-17.438,23.448-20.375,37.813c-1,4.979-1.5,10.021-1.5,14.99    s0.5,10.01,1.5,15.042c2.938,14.323,9.979,27.375,20.583,37.958l191.792,181.125C313.313,504.229,332.063,512,352,512    c41.167,0,74.667-33.5,74.667-74.667c0-19.958-7.771-38.708-22.083-53.01L268.708,256z" data-original="#000000" class="active-path" data-old_color="#000000" />
	</g>
</g></g>
</symbol>

<symbol id="fullscreen" viewBox="0 0 489.776 489.776">
<g><g id="XMLID_574_">
	<path id="XMLID_578_" d="M322.011,213.073c5.578,5.57,14.615,5.567,20.19-0.007l68.556-68.554l21.97,21.953   c4.512,4.512,11.159,6.139,17.25,4.241c6.091-1.915,10.619-7.032,11.75-13.313l25.237-139.309   c0.894-4.975-0.702-10.061-4.288-13.615c-3.572-3.57-8.674-5.133-13.633-4.209L330.438,26.231   c-6.266,1.18-11.352,5.709-13.232,11.797c-1.881,6.076-0.24,12.708,4.256,17.203l21.953,21.953l-68.59,68.563   c-5.581,5.579-5.579,14.628,0.005,20.205L322.011,213.073z" data-original="#000000" class="active-path" data-old_color="#000000" />
	<path id="XMLID_577_" d="M167.762,276.705c-5.578-5.571-14.615-5.569-20.19,0.006l-68.553,68.554L57.05,323.311   c-4.514-4.513-11.16-6.139-17.25-4.242c-6.092,1.914-10.618,7.031-11.752,13.313L2.811,471.692   c-0.891,4.973,0.703,10.059,4.289,13.613c3.572,3.57,8.674,5.135,13.632,4.209l138.607-25.971   c6.267-1.18,11.35-5.709,13.233-11.798c1.881-6.075,0.239-12.706-4.258-17.202l-21.952-21.953l68.662-68.453   c5.594-5.578,5.599-14.637,0.01-20.219L167.762,276.705z" data-original="#000000" class="active-path" data-old_color="#000000" />
	<path id="XMLID_576_" d="M28.049,157.393c1.131,6.281,5.659,11.398,11.75,13.313c6.091,1.898,12.738,0.271,17.25-4.241   l21.97-21.953l68.556,68.554c5.574,5.574,14.611,5.577,20.189,0.007l47.182-47.12c5.584-5.577,5.586-14.626,0.006-20.205   l-68.59-68.563l21.953-21.953c4.496-4.495,6.137-11.127,4.256-17.203c-1.881-6.088-6.967-10.617-13.232-11.797L20.733,0.261   C15.774-0.663,10.672,0.899,7.1,4.47C3.514,8.024,1.918,13.11,2.812,18.085L28.049,157.393z" data-original="#000000" class="active-path" data-old_color="#000000" />
	<path id="XMLID_575_" d="M461.728,332.382c-1.134-6.281-5.66-11.398-11.752-13.313c-6.09-1.896-12.736-0.271-17.25,4.242   l-21.969,21.953l-68.554-68.554c-5.574-5.575-14.612-5.577-20.19-0.006l-47.271,47.214c-5.589,5.582-5.585,14.641,0.01,20.219   l68.662,68.453l-21.952,21.953c-4.497,4.496-6.139,11.127-4.258,17.202c1.883,6.089,6.967,10.618,13.233,11.798l138.606,25.971   c4.958,0.926,10.06-0.639,13.632-4.209c3.586-3.555,5.18-8.641,4.289-13.613L461.728,332.382z" data-original="#000000" class="active-path" data-old_color="#000000" />
</g></g> 
</symbol>

<symbol id="hearts" viewBox="0 0 59.945 59.945">
<g><path d="M58.598,12.729C56.757,8.025,53.242,4.418,48.7,2.571c-1.964-0.798-3.953-1.203-5.91-1.203  c-6.509,0-11.063,4.358-12.84,6.401c-1.768-2.05-6.302-6.426-12.809-6.426c-1.951,0-3.934,0.404-5.895,1.201  C6.704,4.391,3.188,7.998,1.347,12.701c-1.964,5.019-1.773,10.707,0.525,15.608c3.263,6.957,10.681,17.788,27.49,29.872l0.583,0.42  l0.583-0.42c16.892-12.144,24.302-22.934,27.543-29.847C60.371,23.435,60.562,17.747,58.598,12.729z" data-original="#000000" class="active-path" data-old_color="#000000" /></g>
</symbol>

<symbol id="keyboard" viewBox="0 0 426.667 426.667">
<g><g>
	<g>
		<path d="M384,64H42.667C19.093,64,0.213,83.093,0.213,106.667L0,320c0,23.573,19.093,42.667,42.667,42.667H384    c23.573,0,42.667-19.093,42.667-42.667V106.667C426.667,83.093,407.573,64,384,64z M192,128h42.667v42.667H192V128z M192,192    h42.667v42.667H192V192z M128,128h42.667v42.667H128V128z M128,192h42.667v42.667H128V192z M106.667,234.667H64V192h42.667    V234.667z M106.667,170.667H64V128h42.667V170.667z M298.667,320H128v-42.667h170.667V320z M298.667,234.667H256V192h42.667    V234.667z M298.667,170.667H256V128h42.667V170.667z M362.667,234.667H320V192h42.667V234.667z M362.667,170.667H320V128h42.667    V170.667z" data-original="#000000" class="active-path" data-old_color="#000000" />
	</g>
</g></g> 
</symbol>

<symbol id="share" viewBox="-21 0 512 512">
<g><path d="m453.332031 85.332031c0 38.292969-31.039062 69.335938-69.332031 69.335938s-69.332031-31.042969-69.332031-69.335938c0-38.289062 31.039062-69.332031 69.332031-69.332031s69.332031 31.042969 69.332031 69.332031zm0 0" data-original="#000000" class="active-path" data-old_color="#000000" /><path d="m384 170.667969c-47.0625 0-85.332031-38.273438-85.332031-85.335938 0-47.058593 38.269531-85.332031 85.332031-85.332031s85.332031 38.273438 85.332031 85.332031c0 47.0625-38.269531 85.335938-85.332031 85.335938zm0-138.667969c-29.417969 0-53.332031 23.9375-53.332031 53.332031 0 29.398438 23.914062 53.335938 53.332031 53.335938s53.332031-23.9375 53.332031-53.335938c0-29.394531-23.914062-53.332031-53.332031-53.332031zm0 0" data-original="#000000" class="active-path" data-old_color="#000000" /><path d="m453.332031 426.667969c0 38.289062-31.039062 69.332031-69.332031 69.332031s-69.332031-31.042969-69.332031-69.332031c0-38.292969 31.039062-69.335938 69.332031-69.335938s69.332031 31.042969 69.332031 69.335938zm0 0" data-original="#000000" class="active-path" data-old_color="#000000" /><path d="m384 512c-47.0625 0-85.332031-38.273438-85.332031-85.332031 0-47.0625 38.269531-85.335938 85.332031-85.335938s85.332031 38.273438 85.332031 85.335938c0 47.058593-38.269531 85.332031-85.332031 85.332031zm0-138.667969c-29.417969 0-53.332031 23.9375-53.332031 53.335938 0 29.394531 23.914062 53.332031 53.332031 53.332031s53.332031-23.9375 53.332031-53.332031c0-29.398438-23.914062-53.335938-53.332031-53.335938zm0 0" data-original="#000000" class="active-path" data-old_color="#000000" /><path d="m154.667969 256c0 38.292969-31.042969 69.332031-69.335938 69.332031-38.289062 0-69.332031-31.039062-69.332031-69.332031s31.042969-69.332031 69.332031-69.332031c38.292969 0 69.335938 31.039062 69.335938 69.332031zm0 0" data-original="#000000" class="active-path" data-old_color="#000000" /><path d="m85.332031 341.332031c-47.058593 0-85.332031-38.269531-85.332031-85.332031s38.273438-85.332031 85.332031-85.332031c47.0625 0 85.335938 38.269531 85.335938 85.332031s-38.273438 85.332031-85.335938 85.332031zm0-138.664062c-29.417969 0-53.332031 23.933593-53.332031 53.332031s23.914062 53.332031 53.332031 53.332031c29.421875 0 53.335938-23.933593 53.335938-53.332031s-23.914063-53.332031-53.335938-53.332031zm0 0" data-original="#000000" class="active-path" data-old_color="#000000" /><path d="m135.703125 245.761719c-7.425781 0-14.636719-3.863281-18.5625-10.773438-5.824219-10.21875-2.238281-23.253906 7.980469-29.101562l197.949218-112.851563c10.21875-5.867187 23.253907-2.28125 29.101563 7.976563 5.824219 10.21875 2.238281 23.253906-7.980469 29.101562l-197.953125 112.851563c-3.328125 1.898437-6.953125 2.796875-10.535156 2.796875zm0 0" data-original="#000000" class="active-path" data-old_color="#000000" /><path d="m333.632812 421.761719c-3.585937 0-7.210937-.898438-10.539062-2.796875l-197.953125-112.851563c-10.21875-5.824219-13.800781-18.859375-7.976563-29.101562 5.800782-10.238281 18.855469-13.84375 29.097657-7.976563l197.953125 112.851563c10.21875 5.824219 13.800781 18.859375 7.976562 29.101562-3.945312 6.910157-11.15625 10.773438-18.558594 10.773438zm0 0" data-original="#000000" class="active-path" data-old_color="#000000" /></g>
</symbol>

<symbol id="reload" viewBox="0 0 512 512">
<g><g>
	<g>
		<path d="M463.702,162.655L442.491,14.164c-1.744-12.174-16.707-17.233-25.459-8.481l-30.894,30.894    C346.411,12.612,301.309,0,254.932,0C115.464,0,3.491,109.16,0.005,248.511c-0.19,7.617,5.347,14.15,12.876,15.234l59.941,8.569    c8.936,1.304,17.249-5.712,17.125-15.058C88.704,165.286,162.986,90,254.932,90c22.265,0,44.267,4.526,64.6,13.183l-29.78,29.78    c-8.697,8.697-3.761,23.706,8.481,25.459l148.491,21.211C456.508,181.108,465.105,172.599,463.702,162.655z" data-original="#000000" class="active-path" data-old_color="#000000" />
	</g>
</g><g>
	<g>
		<path d="M499.117,249.412l-59.897-8.555c-7.738-0.98-17.124,5.651-17.124,16.143c0,90.981-74.019,165-165,165    c-22.148,0-44.048-4.482-64.306-13.052l28.828-28.828c8.697-8.697,3.761-23.706-8.481-25.459L64.646,333.435    c-9.753-1.393-18.39,6.971-16.978,16.978l21.21,148.492c1.746,12.187,16.696,17.212,25.459,8.481l31.641-31.626    C165.514,499.505,210.587,512,257.096,512c138.794,0,250.752-108.618,254.897-247.28    C512.213,257.088,506.676,250.496,499.117,249.412z" data-original="#000000" class="active-path" data-old_color="#000000" />
	</g>
</g></g> 
</symbol>

<symbol id="playVideo" viewBox="0 0 366.56 366.56">
<g><g>
	<g>
		<path d="M295.312,179.832c-0.61-1.062-1.491-1.942-2.552-2.552l-79.36-46l-0.4-0.2l-78.96-45.4    c-3.316-1.9-7.545-0.752-9.444,2.564c-0.599,1.046-0.915,2.23-0.916,3.436v183.24c0.022,3.813,3.107,6.898,6.92,6.92    c1.434-0.002,2.831-0.449,4-1.28l78.8-45.28l79.36-46C296.074,187.376,297.216,183.146,295.312,179.832z" data-original="#000000" class="active-path" data-old_color="#000000" />
	</g>
</g><g>
	<g>
		<path d="M183.28,0C82.057,0,0,82.057,0,183.28s82.057,183.28,183.28,183.28s183.28-82.057,183.28-183.28S284.503,0,183.28,0z     M183.28,332.52c-82.423,0-149.24-66.817-149.24-149.24S100.857,34.04,183.28,34.04s149.24,66.817,149.24,149.24    S265.703,332.52,183.28,332.52z" data-original="#000000" class="active-path" data-old_color="#000000" />
	</g>
</g></g>
</symbol>

<symbol id="play" viewBox="0 0 163.861 163.861">
<g><g>
	<path d="M34.857,3.613C20.084-4.861,8.107,2.081,8.107,19.106v125.637c0,17.042,11.977,23.975,26.75,15.509L144.67,97.275   c14.778-8.477,14.778-22.211,0-30.686L34.857,3.613z" data-original="#000000" class="active-path" data-old_color="#000000" />
</g></g>
</symbol>

<symbol id="mobile" viewBox="-85 0 366 366.00141">
<g><path d="m171.101562 0h-146.199218c-13.609375-.144531-24.757813 10.769531-24.902344 24.375v.347656 13.277344h196v-13.277344c.046875-13.605468-10.945312-24.675781-24.550781-24.722656-.117188 0-.234375 0-.347657 0zm0 0" data-original="#000000" class="active-path" data-old_color="#000000" /><path d="m0 340.523438c0 13.839843 11.0625 25.476562 24.902344 25.476562h146.199218c13.839844 0 24.898438-11.636719 24.898438-25.476562v-34.523438h-196zm78.433594-11.523438h39.136718c3.867188 0 7 3.136719 7 7 0 3.867188-3.132812 7-7 7h-39.136718c-3.867188 0-7-3.132812-7-7 0-3.863281 3.132812-7 7-7zm0 0" data-original="#000000" class="active-path" data-old_color="#000000" /><path d="m0 52h196v240h-196zm0 0" data-original="#000000" class="active-path" data-old_color="#000000" /></g>
</symbol>

<symbol id="back" viewBox="0 0 512 512">
<g><g>
	<g>
		<path d="M268.708,256l136.083-128.531c14.104-14.104,21.875-32.854,21.875-52.802C426.667,33.5,393.167,0,352,0    c-19.875,0-38.583,7.719-52.667,21.75L107.208,203.198c-10.396,10.385-17.438,23.448-20.375,37.813c-1,4.979-1.5,10.021-1.5,14.99    s0.5,10.01,1.5,15.042c2.938,14.323,9.979,27.375,20.583,37.958l191.792,181.125C313.313,504.229,332.063,512,352,512    c41.167,0,74.667-33.5,74.667-74.667c0-19.958-7.771-38.708-22.083-53.01L268.708,256z" data-original="#000000" class="active-path" data-old_color="#000000" />
	</g>
</g></g>
</symbol>

<symbol id="search" viewBox="0 0 512.542 512.542">
<g>
	<g>
		<path d="M481.28,376.961l-71.68-53.76c17.92-30.72,25.6-66.56,25.6-104.96c0-120.32-97.28-217.6-217.6-217.6S0,97.921,0,218.24
			s97.28,217.6,217.6,217.6c38.4,0,71.68-10.24,104.96-25.6l53.76,71.68c28.16,35.84,81.92,40.96,115.2,7.68
			C522.24,458.88,519.68,405.12,481.28,376.961z M217.6,384.641c-92.16,0-166.4-74.24-166.4-166.4s74.24-166.4,166.4-166.4
			S384,126.081,384,218.24S309.76,384.641,217.6,384.641z"/>
	</g>
</g>
<g>
</g>
<g>
</g>
<g>
</g>
<g>
</g>
<g>
</g>
<g>
</g>
<g>
</g>
<g>
</g>
<g>
</g>
<g>
</g>
<g>
</g>
<g>
</g>
<g>
</g>
<g>
</g>
<g>
</g>
</symbol>

<symbol id="menu" viewBox="0 0 124 124">
<g>
	<path d="M112,6H12C5.4,6,0,11.4,0,18s5.4,12,12,12h100c6.6,0,12-5.4,12-12S118.6,6,112,6z"/>
	<path d="M112,50H12C5.4,50,0,55.4,0,62c0,6.6,5.4,12,12,12h100c6.6,0,12-5.4,12-12C124,55.4,118.6,50,112,50z"/>
	<path d="M112,94H12c-6.6,0-12,5.4-12,12s5.4,12,12,12h100c6.6,0,12-5.4,12-12S118.6,94,112,94z"/>
</g>
<g>
</g>
<g>
</g>
<g>
</g>
<g>
</g>
<g>
</g>
<g>
</g>
<g>
</g>
<g>
</g>
<g>
</g>
<g>
</g>
<g>
</g>
<g>
</g>
<g>
</g>
<g>
</g>
<g>
</g>
</symbol>

<symbol id="walkthrough" viewBox="0 0 512 512">
<g><g>
	<g>
		<path d="M256,0C114.833,0,0,114.833,0,256s114.833,256,256,256s256-114.833,256-256S397.167,0,256,0z M245.333,426.667    c-17.646,0-32-14.354-32-32s14.354-32,32-32c17.646,0,32,14.354,32,32S262.979,426.667,245.333,426.667z M277.333,296.542v34.125    c0,5.896-4.771,10.667-10.667,10.667H224c-5.896,0-10.667-4.771-10.667-10.667v-53.333c0-23.521,19.146-42.667,42.667-42.667    s42.667-19.146,42.667-42.667S279.521,149.333,256,149.333S213.333,168.479,213.333,192v10.667    c0,5.896-4.771,10.667-10.667,10.667H160c-5.896,0-10.667-4.771-10.667-10.667V192c0-58.813,47.854-106.667,106.667-106.667    S362.667,133.188,362.667,192C362.667,243.188,326.604,286.563,277.333,296.542z" data-original="#000000" class="active-path" data-old_color="#000000" />
	</g>
</g></g>
</symbol>

<symbol id="view" viewBox="0 0 469.333 469.333">
<g>
	<g>
		<g>
			<path d="M234.667,170.667c-35.307,0-64,28.693-64,64s28.693,64,64,64s64-28.693,64-64S269.973,170.667,234.667,170.667z"/>
			<path d="M234.667,74.667C128,74.667,36.907,141.013,0,234.667c36.907,93.653,128,160,234.667,160
				c106.773,0,197.76-66.347,234.667-160C432.427,141.013,341.44,74.667,234.667,74.667z M234.667,341.333
				c-58.88,0-106.667-47.787-106.667-106.667S175.787,128,234.667,128s106.667,47.787,106.667,106.667
				S293.547,341.333,234.667,341.333z"/>
		</g>
	</g>
</g>
<g>
</g>
<g>
</g>
<g>
</g>
<g>
</g>
<g>
</g>
<g>
</g>
<g>
</g>
<g>
</g>
<g>
</g>
<g>
</g>
<g>
</g>
<g>
</g>
<g>
</g>
<g>
</g>
<g>
</g>
</symbol>

<symbol id="like" viewBox="0 0 24 24">
<g><path d="m1.75 23h2.5c.965 0 1.75-.785 1.75-1.75v-11.5c0-.965-.785-1.75-1.75-1.75h-2.5c-.965 0-1.75.785-1.75 1.75v11.5c0 .965.785 1.75 1.75 1.75z" data-original="#000000" class="active-path" data-old_color="#000000" /><path d="m12.781.75c-1 0-1.5.5-1.5 3 0 2.376-2.301 4.288-3.781 5.273v12.388c1.601.741 4.806 1.839 9.781 1.839h1.6c1.95 0 3.61-1.4 3.94-3.32l1.12-6.5c.42-2.45-1.46-4.68-3.94-4.68h-4.72s.75-1.5.75-4c0-3-2.25-4-3.25-4z" data-original="#000000" class="active-path" data-old_color="#000000" /></g>
</symbol>

<symbol id="exit" viewBox="0 0 339.177 339.177">
<g>
	<path d="M247.244,169.59l83.938-83.938c5.332-5.327,7.994-11.798,7.994-19.414c0-7.614-2.669-14.084-7.994-19.414L292.355,7.993
		C287.026,2.665,280.556,0,272.944,0c-7.617,0-14.085,2.665-19.417,7.993L169.59,91.931L85.651,7.993
		C80.325,2.665,73.854,0,66.237,0c-7.611,0-14.083,2.665-19.414,7.993L7.994,46.824C2.667,52.15,0,58.624,0,66.238
		c0,7.616,2.664,14.084,7.994,19.414l83.937,83.938L7.994,253.528C2.667,258.859,0,265.327,0,272.945
		c0,7.61,2.664,14.082,7.994,19.41l38.83,38.828c5.33,5.332,11.803,7.994,19.414,7.994c7.616,0,14.084-2.669,19.414-7.994
		l83.939-83.938l83.944,83.938c5.328,5.332,11.793,7.994,19.417,7.994c7.611,0,14.082-2.669,19.411-7.994l38.82-38.828
		c5.332-5.324,7.994-11.8,7.994-19.41c0-7.618-2.662-14.086-7.994-19.417L247.244,169.59z"/>
</g>
<g>
</g>
<g>
</g>
<g>
</g>
<g>
</g>
<g>
</g>
<g>
</g>
<g>
</g>
<g>
</g>
<g>
</g>
<g>
</g>
<g>
</g>
<g>
</g>
<g>
</g>
<g>
</g>
<g>
</g>
</symbol>

<symbol id="star" viewBox="0 0 612 612">
<g>
	<path d="M610.089,233.999c-4.591-14.132-16.807-24.432-31.512-26.567l-164.159-23.856L341.004,34.827
		c-6.575-13.325-20.147-21.76-35.005-21.76s-28.43,8.435-35.005,21.76l-73.413,148.749L33.424,207.432
		c-14.705,2.136-26.921,12.436-31.512,26.567s-0.762,29.643,9.879,40.015l118.784,115.789l-28.041,163.494
		c-2.51,14.644,3.51,29.446,15.529,38.18c12.021,8.734,27.958,9.883,41.112,2.97l146.825-77.192l146.823,77.192
		c5.711,3.004,11.949,4.485,18.162,4.485c8.092,0,16.149-2.515,22.95-7.455c12.021-8.734,18.041-23.536,15.531-38.18
		l-28.041-163.494l118.784-115.787C610.851,263.645,614.68,248.131,610.089,233.999z M412.233,348.22
		c-9.202,8.969-13.399,21.889-11.229,34.552l18.139,105.762l-94.977-49.934c-11.371-5.978-24.954-5.978-36.332,0l-94.979,49.934
		l18.139-105.762c2.172-12.662-2.026-25.583-11.227-34.552l-76.841-74.904l106.192-15.431c12.715-1.848,23.706-9.834,29.391-21.354
		l47.492-96.226l47.492,96.226c5.688,11.522,16.678,19.508,29.391,21.354l106.192,15.431L412.233,348.22z"/>
</g>
<g>
</g>
<g>
</g>
<g>
</g>
<g>
</g>
<g>
</g>
<g>
</g>
<g>
</g>
<g>
</g>
<g>
</g>
<g>
</g>
<g>
</g>
<g>
</g>
<g>
</g>
<g>
</g>
<g>
</g>
</symbol>

<symbol id="planet" viewBox="0 0 49.132 49.132">
<g>
	<g>
		<path d="M24.566,0C10.997,0,0,10.999,0,24.566c0,13.567,10.997,24.566,24.566,24.566c13.569,0,24.566-10.999,24.566-24.566
			C49.132,10.999,38.134,0,24.566,0z M43.16,20.918l-4.521,0.798c-0.7,0.123-1.533,0.745-1.852,1.382l-0.922,1.845
			c-0.318,0.635-0.452,1.724-0.297,2.418l1.102,4.959c0.154,0.694-0.272,1.446-0.946,1.671l-2.535,0.845
			c-0.674,0.225-1.614,0.844-2.086,1.375l-1.609,1.811c-0.473,0.531-1.44,0.921-2.148,0.866l-2.826-0.217
			c-0.709-0.055-1.122-0.657-0.917-1.338l0.504-1.68c0.204-0.681-0.122-1.547-0.725-1.924l-1.133-0.708
			c-0.603-0.377-1.445-0.22-1.872,0.349l-3.438,4.584c-0.427,0.568-0.31,1.383,0.259,1.809l1.257,0.943
			c0.569,0.426,0.872,1.334,0.674,2.017l-0.303,1.041c-5.022-1.505-9.222-4.931-11.743-9.422l0.771-0.69
			c0.529-0.475,1.081-1.433,1.227-2.129l0.175-0.842c0.145-0.696-0.138-1.685-0.63-2.198l-0.879-0.917
			c-0.492-0.513-0.394-1.23,0.218-1.592l1.57-0.93c0.612-0.363,1.602-0.343,2.2,0.041l1.566,1.008
			c0.598,0.385,1.601,0.427,2.229,0.094l1.915-1.016c0.628-0.334,1.272-1.173,1.432-1.866l0.31-1.351
			c0.16-0.693,0.047-1.789-0.25-2.435l-1.096-2.385c-0.297-0.646-0.012-1.419,0.634-1.717l2.593-1.197
			c0.646-0.298,1.279-1.114,1.407-1.813l0.383-2.086c0.128-0.699-0.105-1.745-0.517-2.325l-1.475-2.072
			c-0.191-0.269-0.302-0.626-0.335-0.992c1.303-0.266,2.653-0.407,4.035-0.407c9.807,0,17.987,7.084,19.704,16.403
			C43.874,20.872,43.477,20.862,43.16,20.918z"/>
	</g>
</g>
<g>
</g>
<g>
</g>
<g>
</g>
<g>
</g>
<g>
</g>
<g>
</g>
<g>
</g>
<g>
</g>
<g>
</g>
<g>
</g>
<g>
</g>
<g>
</g>
<g>
</g>
<g>
</g>
<g>
</g></symbol>

<symbol id="vk" viewBox="0 0 511.962 511.962">
<g>
	<g>
		<path d="M507.399,370.471c-1.376-2.304-9.888-20.8-50.848-58.816c-42.88-39.808-37.12-33.344,14.528-102.176
			c31.456-41.92,44.032-67.52,40.096-78.464c-3.744-10.432-26.88-7.68-26.88-7.68l-76.928,0.448c0,0-5.696-0.768-9.952,1.76
			c-4.128,2.496-6.784,8.256-6.784,8.256s-12.192,32.448-28.448,60.032c-34.272,58.208-48,61.28-53.6,57.664
			c-13.024-8.416-9.76-33.856-9.76-51.904c0-56.416,8.544-79.936-16.672-86.016c-8.384-2.016-14.528-3.36-35.936-3.584
			c-27.456-0.288-50.72,0.096-63.872,6.528c-8.768,4.288-15.52,13.856-11.392,14.4c5.088,0.672,16.608,3.104,22.72,11.424
			c7.904,10.72,7.616,34.848,7.616,34.848s4.544,66.4-10.592,74.656c-10.4,5.664-24.64-5.888-55.2-58.72
			c-15.648-27.04-27.488-56.96-27.488-56.96s-2.272-5.568-6.336-8.544c-4.928-3.616-11.84-4.768-11.84-4.768l-73.152,0.448
			c0,0-10.976,0.32-15.008,5.088c-3.584,4.256-0.288,13.024-0.288,13.024s57.28,133.984,122.112,201.536
			c59.488,61.92,127.008,57.856,127.008,57.856h30.592c0,0,9.248-1.024,13.952-6.112c4.352-4.672,4.192-13.44,4.192-13.44
			s-0.608-41.056,18.464-47.104c18.784-5.952,42.912,39.68,68.48,57.248c19.328,13.28,34.016,10.368,34.016,10.368l68.384-0.96
			C488.583,400.807,524.359,398.599,507.399,370.471z"/>
	</g>
</g>
<g>
</g>
<g>
</g>
<g>
</g>
<g>
</g>
<g>
</g>
<g>
</g>
<g>
</g>
<g>
</g>
<g>
</g>
<g>
</g>
<g>
</g>
<g>
</g>
<g>
</g>
<g>
</g>
<g>
</g>
</symbol>

<symbol id="ok" viewBox="0 0 24 24">
<path d="m4.721 12.881c-.613 1.205.083 1.781 1.671 2.765 1.35.834 3.215 1.139 4.413 1.261-.491.472 1.759-1.692-4.721 4.541-1.374 1.317.838 3.43 2.211 2.141l3.717-3.585c1.423 1.369 2.787 2.681 3.717 3.59 1.374 1.294 3.585-.801 2.226-2.141-.102-.097-5.037-4.831-4.736-4.541 1.213-.122 3.05-.445 4.384-1.261l-.001-.001c1.588-.989 2.284-1.564 1.68-2.769-.365-.684-1.349-1.256-2.659-.267 0 0-1.769 1.355-4.622 1.355-2.854 0-4.622-1.355-4.622-1.355-1.309-.994-2.297-.417-2.658.267z"/><path d="m11.999 12.142c3.478 0 6.318-2.718 6.318-6.064 0-3.36-2.84-6.078-6.318-6.078-3.479 0-6.319 2.718-6.319 6.078 0 3.346 2.84 6.064 6.319 6.064zm0-9.063c1.709 0 3.103 1.341 3.103 2.999 0 1.644-1.394 2.985-3.103 2.985s-3.103-1.341-3.103-2.985c-.001-1.659 1.393-2.999 3.103-2.999z"/>
</symbol>

<symbol id="fb" viewBox="0 0 96.124 96.123">
<g>
	<path d="M72.089,0.02L59.624,0C45.62,0,36.57,9.285,36.57,23.656v10.907H24.037c-1.083,0-1.96,0.878-1.96,1.961v15.803
		c0,1.083,0.878,1.96,1.96,1.96h12.533v39.876c0,1.083,0.877,1.96,1.96,1.96h16.352c1.083,0,1.96-0.878,1.96-1.96V54.287h14.654
		c1.083,0,1.96-0.877,1.96-1.96l0.006-15.803c0-0.52-0.207-1.018-0.574-1.386c-0.367-0.368-0.867-0.575-1.387-0.575H56.842v-9.246
		c0-4.444,1.059-6.7,6.848-6.7l8.397-0.003c1.082,0,1.959-0.878,1.959-1.96V1.98C74.046,0.899,73.17,0.022,72.089,0.02z"/>
</g>
<g>
</g>
<g>
</g>
<g>
</g>
<g>
</g>
<g>
</g>
<g>
</g>
<g>
</g>
<g>
</g>
<g>
</g>
<g>
</g>
<g>
</g>
<g>
</g>
<g>
</g>
<g>
</g>
<g>
</g>
</symbol>

<symbol id="tg" viewBox="0 0 300 300">
<g id="XMLID_496_">
	<path id="XMLID_497_" d="M5.299,144.645l69.126,25.8l26.756,86.047c1.712,5.511,8.451,7.548,12.924,3.891l38.532-31.412
		c4.039-3.291,9.792-3.455,14.013-0.391l69.498,50.457c4.785,3.478,11.564,0.856,12.764-4.926L299.823,29.22
		c1.31-6.316-4.896-11.585-10.91-9.259L5.218,129.402C-1.783,132.102-1.722,142.014,5.299,144.645z M96.869,156.711l135.098-83.207
		c2.428-1.491,4.926,1.792,2.841,3.726L123.313,180.87c-3.919,3.648-6.447,8.53-7.163,13.829l-3.798,28.146
		c-0.503,3.758-5.782,4.131-6.819,0.494l-14.607-51.325C89.253,166.16,91.691,159.907,96.869,156.711z"/>
</g>
<g>
</g>
<g>
</g>
<g>
</g>
<g>
</g>
<g>
</g>
<g>
</g>
<g>
</g>
<g>
</g>
<g>
</g>
<g>
</g>
<g>
</g>
<g>
</g>
<g>
</g>
<g>
</g>
<g>
</g>
</symbol>

<symbol id="vb" viewBox="0 0 504 504">
<g>
	<g>
		<path d="M377.6,0H126C56.8,0,0,56.8,0,126.4V378c0,69.2,56.8,126,126,126h251.6c69.6,0,126.4-56.8,126.4-126.4V126.4
			C504,56.8,447.2,0,377.6,0z M238.4,103.6c0.8-12.4,12.4-8,18.4-8.8c75.2,2.4,140,70,139.2,142.8c0,7.2,2.4,17.6-8.4,17.6
			c-10.4,0-7.6-10.8-8.8-18c-10-77.2-46-113.6-124.4-125.6C248,110.8,238,112,238.4,103.6z M350.8,240.8c-12,1.6-9.6-8.8-10.8-15.6
			c-8-47.2-24.8-64.4-73.2-74.8c-7.2-1.6-18.4-0.4-16.4-11.2c1.6-10.4,11.6-6.8,19.2-6c48.4,5.6,88,46.8,87.6,92
			C356.4,230,359.6,239.2,350.8,240.8z M320.8,216c0,6.4-0.8,12.4-8,13.2c-5.2,0.8-8.4-3.6-9.2-8.8c-2-19.2-12.4-30.8-32.4-34
			c-6-0.8-11.6-2.8-8.8-10.8c2-5.2,6.8-6,12-6C296,169.2,320.8,194.4,320.8,216z M396.8,363.6c-8.4,22.8-36.8,46-61.2,45.6
			c-3.6-0.8-10.4-2-16.4-4.4C212,359.6,134,285.2,90,178.8c-14.8-35.6,0.8-66,38-78c6.8-2.4,13.2-2.4,20,0
			c16,5.6,56.4,60.4,57.2,76.4c0.8,12.4-8,19.2-16.4,24.8c-16.4,10.8-16.4,24.4-9.2,40c15.6,34.4,42.4,58.4,77.2,73.6
			c12.4,5.6,24.8,5.2,33.2-7.6c15.2-22.8,34-21.6,54.4-7.6c10.4,7.2,20.8,14,30.4,21.6C388,332.8,404.8,341.6,396.8,363.6z"/>
	</g>
</g>
<g>
</g>
<g>
</g>
<g>
</g>
<g>
</g>
<g>
</g>
<g>
</g>
<g>
</g>
<g>
</g>
<g>
</g>
<g>
</g>
<g>
</g>
<g>
</g>
<g>
</g>
<g>
</g>
<g>
</g>
</symbol>

<symbol id="wa" viewBox="0 0 512 512">
<g>
	<g>
		<path d="M256.064,0h-0.128C114.784,0,0,114.816,0,256c0,56,18.048,107.904,48.736,150.048l-31.904,95.104l98.4-31.456
			C155.712,496.512,204,512,256.064,512C397.216,512,512,397.152,512,256S397.216,0,256.064,0z M405.024,361.504
			c-6.176,17.44-30.688,31.904-50.24,36.128c-13.376,2.848-30.848,5.12-89.664-19.264C189.888,347.2,141.44,270.752,137.664,265.792
			c-3.616-4.96-30.4-40.48-30.4-77.216s18.656-54.624,26.176-62.304c6.176-6.304,16.384-9.184,26.176-9.184
			c3.168,0,6.016,0.16,8.576,0.288c7.52,0.32,11.296,0.768,16.256,12.64c6.176,14.88,21.216,51.616,23.008,55.392
			c1.824,3.776,3.648,8.896,1.088,13.856c-2.4,5.12-4.512,7.392-8.288,11.744c-3.776,4.352-7.36,7.68-11.136,12.352
			c-3.456,4.064-7.36,8.416-3.008,15.936c4.352,7.36,19.392,31.904,41.536,51.616c28.576,25.44,51.744,33.568,60.032,37.024
			c6.176,2.56,13.536,1.952,18.048-2.848c5.728-6.176,12.8-16.416,20-26.496c5.12-7.232,11.584-8.128,18.368-5.568
			c6.912,2.4,43.488,20.48,51.008,24.224c7.52,3.776,12.48,5.568,14.304,8.736C411.2,329.152,411.2,344.032,405.024,361.504z"/>
	</g>
</g>
<g>
</g>
<g>
</g>
<g>
</g>
<g>
</g>
<g>
</g>
<g>
</g>
<g>
</g>
<g>
</g>
<g>
</g>
<g>
</g>
<g>
</g>
<g>
</g>
<g>
</g>
<g>
</g>
<g>
</g>
</symbol>

<symbol id="time" viewBox="0 0 34.5 34.5">

<g>
	<path d="M17.25,0C7.738,0,0,7.738,0,17.25C0,26.762,7.738,34.5,17.25,34.5c9.512,0,17.25-7.738,17.25-17.25
		C34.5,7.738,26.762,0,17.25,0z M17.25,29.5C10.495,29.5,5,24.005,5,17.25S10.495,5,17.25,5S29.5,10.495,29.5,17.25
		S24.005,29.5,17.25,29.5z M25.914,18.131c0,1.381-1.119,2.5-2.5,2.5H17.25c-1.381,0-2.5-1.119-2.5-2.5v-7.926
		c0-1.381,1.119-2.5,2.5-2.5s2.5,1.119,2.5,2.5v5.426h3.664C24.795,15.631,25.914,16.75,25.914,18.131z"/>
</g>
<g>
</g>
<g>
</g>
<g>
</g>
<g>
</g>
<g>
</g>
<g>
</g>
<g>
</g>
<g>
</g>
<g>
</g>
<g>
</g>
<g>
</g>
<g>
</g>
<g>
</g>
<g>
</g>
<g>
</g>

</symbol>

<symbol id="mouse" viewBox="0 0 50 50.001">

<g><g>
	<g>
		<path d="M25.555,11.909c-1.216,0-2.207,1.963-2.207,4.396c0,2.423,0.991,4.395,2.207,4.395c1.208,0,2.197-1.972,2.197-4.395    C27.751,13.872,26.762,11.909,25.555,11.909z" data-original="#000000" class="active-path" data-old_color="#000000" fill="#B3B5B6"/>
		<path d="M18.22,5.842c4.432,0,6.227,0.335,6.227,3.653h2.207c0-5.851-4.875-5.851-8.433-5.851c-4.422,0-6.227-0.326-6.227-3.644    H9.795C9.795,5.842,14.671,5.842,18.22,5.842z" data-original="#000000" class="active-path" data-old_color="#000000" fill="#B3B5B6"/>
		<path d="M29.62,9.495c0.209,0.632,0.331,1.315,0.331,2.031v9.548c0,2.681-1.562,4.91-3.608,5.387    c0.004,0.031,0.021,0.059,0.021,0.1v7.67c0,0.445-0.363,0.81-0.817,0.81c-0.445,0-0.809-0.365-0.809-0.81v-7.67    c0-0.041,0.019-0.068,0.022-0.1c-2.046-0.477-3.609-2.706-3.609-5.387v-9.548c0-0.715,0.121-1.399,0.331-2.031    c-6.057,1.596-10.586,7.089-10.586,13.632v12.716c-0.001,7.787,6.37,14.158,14.155,14.158h0.999    c7.786,0,14.156-6.371,14.156-14.158V23.127C40.206,16.584,35.676,11.091,29.62,9.495z" data-original="#000000" class="active-path" data-old_color="#000000" fill="#B3B5B6"/>
	</g>
</g></g> 

</symbol>

<symbol id="mouse-right" viewBox="0 0 417.031 417.031">

<g><g>
	<path d="M219.683,92.146c-0.279-0.315-0.52-0.627-0.849-0.925c-3.644-3.272-3.742-2.306,0.247-5.983   c2.955-2.712,6.541-4.834,9.79-7.18c8.596-6.213,14.254-14.534,18.079-24.399c8.582-22.15-16.706-37.453-29.396-50.562   c-9.168-9.485-23.603,4.982-14.444,14.447c7.076,7.325,16.19,13.264,22.349,21.407c6.897,9.116-3.613,19.174-10.814,24.249   c-11.133,7.844-20.757,18.262-18.533,29.434c-49.964,4.668-96.16,32.052-96.16,80.327v135.51   c0,59.862,48.698,108.562,108.564,108.562c59.863,0,108.566-48.7,108.566-108.562V172.95   C317.085,120.247,268.05,94.723,219.683,92.146z M120.391,172.95c0-35.833,38.898-56.581,79.186-60.027v124.982   c-36.751-1.85-66.589-10.222-79.186-14.309V172.95z M296.648,308.461c0,48.604-39.537,88.133-88.129,88.133   c-48.59,0-88.128-39.529-88.128-88.133V245.08c18.249,5.516,52.6,13.882,93.202,13.882c26.003,0,54.556-3.479,83.056-13.286   V308.461z M296.648,223.94c-25.844,9.883-52.237,13.746-76.635,14.271v-125.59c39.407,2.363,76.635,21.264,76.635,60.337V223.94z    M289.735,216.203c0,0-46.688,13.073-62.567,10.271V122.813C269.429,130.753,296.625,143.533,289.735,216.203z" data-original="#000000" class="active-path" data-old_color="#000000" fill="#B3B5B6"/>
</g></g>

</symbol>

<symbol id="mouse-left" viewBox="0 0 450.47 450.47">

<g><g>
	<path d="M237.298,99.533c-0.301-0.34-0.562-0.677-0.916-0.999c-3.937-3.535-4.043-2.491,0.266-6.463   c3.192-2.929,7.063-5.222,10.574-7.755c9.286-6.711,15.398-15.699,19.529-26.356C276.02,34.033,248.707,17.503,235,3.344   c-9.904-10.247-25.496,5.382-15.604,15.604c7.643,7.912,17.489,14.328,24.14,23.123c7.453,9.848-3.901,20.712-11.68,26.194   c-12.026,8.473-22.423,19.727-20.02,31.794c-53.971,5.042-103.87,34.623-103.87,86.767V333.2c0,64.664,52.603,117.27,117.27,117.27   c64.663,0,117.27-52.605,117.27-117.27V186.817C342.51,129.888,289.543,102.317,237.298,99.533z M130.044,186.817   c0-38.707,42.017-61.117,85.535-64.841v135.005c-39.697-1.998-71.928-11.042-85.535-15.457V186.817z M320.433,333.194   c0,52.5-42.705,95.199-95.192,95.199c-52.488,0-95.196-42.699-95.196-95.199V264.73c19.713,5.958,56.817,14.995,100.676,14.995   c28.088,0,58.93-3.759,89.713-14.352V333.194z M320.433,241.896c-27.916,10.675-56.424,14.849-82.78,15.415v-135.66   c42.569,2.553,82.78,22.969,82.78,65.175V241.896z M206.072,133.429v111.973c-17.153,3.027-67.583-11.094-67.583-11.094   C131.049,155.812,160.429,142.005,206.072,133.429z" data-original="#000000" class="active-path" data-old_color="#000000" fill="#B3B5B6"/>
</g></g>

</symbol>

<symbol id="starItem" viewBox="0 -10 511.99143 511">
<path d="m510.652344 185.882812c-3.371094-10.367187-12.566406-17.707031-23.402344-18.6875l-147.796875-13.417968-58.410156-136.75c-4.3125-10.046875-14.125-16.53125-25.046875-16.53125s-20.738282 6.484375-25.023438 16.53125l-58.410156 136.75-147.820312 13.417968c-10.835938 1-20.011719 8.339844-23.402344 18.6875-3.371094 10.367188-.257813 21.738282 7.9375 28.925782l111.722656 97.964844-32.941406 145.085937c-2.410156 10.667969 1.730468 21.699219 10.582031 28.097656 4.757813 3.457031 10.347656 5.183594 15.957031 5.183594 4.820313 0 9.644532-1.28125 13.953125-3.859375l127.445313-76.203125 127.421875 76.203125c9.347656 5.585938 21.101562 5.074219 29.933593-1.324219 8.851563-6.398437 12.992188-17.429687 10.582032-28.097656l-32.941406-145.085937 111.722656-97.964844c8.191406-7.1875 11.308594-18.535156 7.9375-28.925782zm-252.203125 223.722657"/>
</symbol>

<symbol id="discord" viewBox="0 0 24 24">
<path d="m3.58 21.196h14.259l-.681-2.205 1.629 1.398 1.493 1.338 2.72 2.273v-21.525c-.068-1.338-1.22-2.475-2.648-2.475l-16.767.003c-1.427 0-2.585 1.139-2.585 2.477v16.24c0 1.411 1.156 2.476 2.58 2.476zm10.548-15.513-.033.012.012-.012zm-7.631 1.269c1.833-1.334 3.532-1.27 3.532-1.27l.137.135c-2.243.535-3.26 1.537-3.26 1.537s.272-.133.747-.336c3.021-1.188 6.32-1.102 9.374.402 0 0-1.019-.937-3.124-1.537l.186-.183c.291.001 1.831.055 3.479 1.26 0 0 1.844 3.15 1.844 7.02-.061-.074-1.144 1.666-3.931 1.726 0 0-.472-.534-.808-1 1.63-.468 2.24-1.404 2.24-1.404-.535.337-1.023.537-1.419.737-.609.268-1.219.4-1.828.535-2.884.468-4.503-.315-6.033-.936l-.523-.266s.609.936 2.174 1.404c-.411.469-.818 1.002-.818 1.002-2.786-.066-3.802-1.806-3.802-1.806 0-3.876 1.833-7.02 1.833-7.02z"/><path d="m14.308 12.771c.711 0 1.29-.6 1.29-1.34 0-.735-.576-1.335-1.29-1.335v.003c-.708 0-1.288.598-1.29 1.338 0 .734.579 1.334 1.29 1.334z"/><path d="m9.69 12.771c.711 0 1.29-.6 1.29-1.34 0-.735-.575-1.335-1.286-1.335l-.004.003c-.711 0-1.29.598-1.29 1.338 0 .734.579 1.334 1.29 1.334z"/>
</symbol>

</svg>